<?xml version="1.0" encoding="utf-8"?>
<!-- Generator: Adobe Illustrator 24.2.3, SVG Export Plug-In . SVG Version: 6.00 Build 0)  -->
<svg version="1.1" id="Layer_1" xmlns="http://www.w3.org/2000/svg" xmlns:xlink="http://www.w3.org/1999/xlink" x="0px" y="0px"
	 viewBox="0 0 800 492" style="enable-background:new 0 0 800 492;" xml:space="preserve">
<style type="text/css">
	.st0{fill:#004C6A;}
	.st1{fill:#FFFFFF;}
	.st2{fill:#003C57;}
	.st3{fill:#004B6E;}
	.st4{fill:#206095;}
</style>
<rect class="st0" width="800" height="492"/>
<g>
	<g id="Circle">
		<circle class="st1" cx="399" cy="246.5" r="161.4"/>
	</g>
	<g id="Artwork_64x64">
		<rect x="318.3" y="269.9" class="st2" width="29.4" height="51.4"/>
		<rect x="406.3" y="255.3" class="st2" width="29.4" height="66"/>
		<rect x="362.3" y="233.3" class="st2" width="29.4" height="88"/>
		<rect x="450.3" y="211.2" class="st2" width="29.4" height="110.1"/>
		<polygon class="st3" points="336.5,230.1 329.4,221.7 376.2,182.7 419.9,204.5 461.1,163.3 468.9,171.1 422.1,218 377.8,195.8 		
			"/>
		<circle class="st4" cx="465" cy="167.2" r="14.7"/>
		<circle class="st4" cx="421" cy="211.2" r="14.7"/>
		<circle class="st4" cx="377" cy="189.2" r="14.7"/>
		<circle class="st4" cx="333" cy="225.9" r="14.7"/>
		<path class="st4" d="M496.2,328.6H301.8c-3,0-5.5-2.5-5.5-5.5c0-3.1,2.5-5.5,5.5-5.5h194.4c3,0,5.5,2.5,5.5,5.5
			C501.7,326.2,499.3,328.6,496.2,328.6L496.2,328.6z"/>
	</g>
</g>
</svg>
