<?xml version="1.0" encoding="utf-8"?>
<!-- Generator: Adobe Illustrator 24.2.3, SVG Export Plug-In . SVG Version: 6.00 Build 0)  -->
<svg version="1.1" id="Layer_1" xmlns="http://www.w3.org/2000/svg" xmlns:xlink="http://www.w3.org/1999/xlink" x="0px" y="0px"
	 viewBox="0 0 800 492" style="enable-background:new 0 0 800 492;" xml:space="preserve">
<style type="text/css">
	.st0{fill:#004C6A;}
	.st1{opacity:0.2;}
	.st2{fill:#FFFFFF;}
</style>
<rect class="st0" width="800" height="492"/>
<g class="st1">
	<circle class="st2" cx="277.9" cy="246.3" r="6.2"/>
	<circle class="st2" cx="295.3" cy="246.3" r="6.2"/>
	<circle class="st2" cx="277.9" cy="263.7" r="6.2"/>
	<circle class="st2" cx="243.1" cy="281.1" r="6.2"/>
	<circle class="st2" cx="277.9" cy="281.1" r="6.2"/>
	<circle class="st2" cx="312.7" cy="281.1" r="6.2"/>
	<circle class="st2" cx="243.1" cy="298.4" r="6.2"/>
	<circle class="st2" cx="260.5" cy="298.4" r="6.2"/>
	<circle class="st2" cx="277.9" cy="298.4" r="6.2"/>
	<circle class="st2" cx="295.3" cy="298.4" r="6.2"/>
	<circle class="st2" cx="312.7" cy="298.4" r="6.2"/>
	<circle class="st2" cx="330.1" cy="298.4" r="6.2"/>
	<circle class="st2" cx="243.1" cy="315.9" r="6.2"/>
	<circle class="st2" cx="260.5" cy="315.9" r="6.2"/>
	<circle class="st2" cx="277.9" cy="315.9" r="6.2"/>
	<circle class="st2" cx="295.3" cy="315.9" r="6.2"/>
	<circle class="st2" cx="312.7" cy="315.9" r="6.2"/>
	<circle class="st2" cx="330.1" cy="315.9" r="6.2"/>
	<circle class="st2" cx="277.9" cy="333.3" r="6.2"/>
	<circle class="st2" cx="295.3" cy="333.3" r="6.2"/>
	<circle class="st2" cx="312.7" cy="333.3" r="6.2"/>
	<circle class="st2" cx="330.1" cy="333.3" r="6.2"/>
	<circle class="st2" cx="260.5" cy="350.6" r="6.2"/>
	<circle class="st2" cx="277.9" cy="350.6" r="6.2"/>
	<circle class="st2" cx="295.3" cy="350.6" r="6.2"/>
	<circle class="st2" cx="312.7" cy="350.6" r="6.2"/>
	<circle class="st2" cx="330.1" cy="350.6" r="6.2"/>
	<circle class="st2" cx="243.1" cy="368" r="6.2"/>
	<circle class="st2" cx="260.5" cy="368" r="6.2"/>
	<circle class="st2" cx="277.9" cy="368" r="6.2"/>
	<circle class="st2" cx="295.3" cy="368" r="6.2"/>
	<circle class="st2" cx="312.7" cy="368" r="6.2"/>
	<circle class="st2" cx="330.1" cy="368" r="6.2"/>
	<circle class="st2" cx="243.1" cy="385.5" r="6.2"/>
	<circle class="st2" cx="260.5" cy="385.5" r="6.2"/>
	<circle class="st2" cx="277.9" cy="385.5" r="6.2"/>
	<circle class="st2" cx="295.3" cy="385.5" r="6.2"/>
	<circle class="st2" cx="260.5" cy="402.8" r="6.2"/>
</g>
<g>
	<circle class="st2" cx="469.3" cy="18.4" r="6.2"/>
	<circle class="st2" cx="330.1" cy="72.3" r="6.2"/>
	<circle class="st2" cx="382.3" cy="72.3" r="6.2"/>
	<circle class="st2" cx="399.7" cy="72.3" r="6.2"/>
	<circle class="st2" cx="417.1" cy="72.3" r="6.2"/>
	<circle class="st2" cx="330.1" cy="89.7" r="6.2"/>
	<circle class="st2" cx="364.9" cy="89.7" r="6.2"/>
	<circle class="st2" cx="382.3" cy="89.7" r="6.2"/>
	<circle class="st2" cx="399.7" cy="89.7" r="6.2"/>
	<circle class="st2" cx="364.9" cy="107.1" r="6.2"/>
	<circle class="st2" cx="382.3" cy="107.1" r="6.2"/>
	<circle class="st2" cx="364.9" cy="124.5" r="6.2"/>
	<circle class="st2" cx="382.3" cy="124.5" r="6.2"/>
	<circle class="st2" cx="399.7" cy="124.5" r="6.2"/>
	<circle class="st2" cx="417.1" cy="124.5" r="6.2"/>
	<circle class="st2" cx="434.5" cy="124.5" r="6.2"/>
	<circle class="st2" cx="451.9" cy="124.5" r="6.2"/>
	<circle class="st2" cx="330.1" cy="141.9" r="6.2"/>
	<circle class="st2" cx="364.9" cy="141.9" r="6.2"/>
	<circle class="st2" cx="382.3" cy="141.9" r="6.2"/>
	<circle class="st2" cx="399.7" cy="141.9" r="6.2"/>
	<circle class="st2" cx="417.1" cy="141.9" r="6.2"/>
	<circle class="st2" cx="434.5" cy="141.9" r="6.2"/>
	<circle class="st2" cx="451.9" cy="141.9" r="6.2"/>
	<circle class="st2" cx="347.5" cy="159.3" r="6.2"/>
	<circle class="st2" cx="364.9" cy="159.3" r="6.2"/>
	<circle class="st2" cx="382.3" cy="159.3" r="6.2"/>
	<circle class="st2" cx="399.7" cy="159.3" r="6.2"/>
	<circle class="st2" cx="417.1" cy="159.3" r="6.2"/>
	<circle class="st2" cx="434.5" cy="159.3" r="6.2"/>
	<circle class="st2" cx="347.5" cy="176.7" r="6.2"/>
	<circle class="st2" cx="364.9" cy="176.7" r="6.2"/>
	<circle class="st2" cx="382.3" cy="176.7" r="6.2"/>
	<circle class="st2" cx="399.7" cy="176.7" r="6.2"/>
	<circle class="st2" cx="417.1" cy="176.7" r="6.2"/>
	<circle class="st2" cx="347.5" cy="194.1" r="6.2"/>
	<circle class="st2" cx="364.9" cy="194.1" r="6.2"/>
	<circle class="st2" cx="382.3" cy="194.1" r="6.2"/>
	<circle class="st2" cx="399.7" cy="194.1" r="6.2"/>
	<circle class="st2" cx="417.1" cy="194.1" r="6.2"/>
	<circle class="st2" cx="434.5" cy="194.1" r="6.2"/>
	<circle class="st2" cx="330.1" cy="211.5" r="6.2"/>
	<circle class="st2" cx="364.9" cy="211.5" r="6.2"/>
	<circle class="st2" cx="382.3" cy="211.5" r="6.2"/>
	<circle class="st2" cx="399.7" cy="211.5" r="6.2"/>
	<circle class="st2" cx="417.1" cy="211.5" r="6.2"/>
	<circle class="st2" cx="434.5" cy="211.5" r="6.2"/>
	<circle class="st2" cx="451.9" cy="211.5" r="6.2"/>
	<circle class="st2" cx="382.3" cy="228.8" r="6.2"/>
	<circle class="st2" cx="399.7" cy="228.8" r="6.2"/>
	<circle class="st2" cx="417.1" cy="228.8" r="6.2"/>
	<circle class="st2" cx="434.5" cy="228.8" r="6.2"/>
	<circle class="st2" cx="451.9" cy="228.8" r="6.2"/>
	<circle class="st2" cx="382.3" cy="246.3" r="6.2"/>
	<circle class="st2" cx="399.7" cy="246.3" r="6.2"/>
	<circle class="st2" cx="417.1" cy="246.3" r="6.2"/>
	<circle class="st2" cx="434.5" cy="246.3" r="6.2"/>
	<circle class="st2" cx="451.9" cy="246.3" r="6.2"/>
	<circle class="st2" cx="469.3" cy="246.3" r="6.2"/>
	<circle class="st2" cx="417.1" cy="263.7" r="6.2"/>
	<circle class="st2" cx="434.5" cy="263.7" r="6.2"/>
	<circle class="st2" cx="451.9" cy="263.7" r="6.2"/>
	<circle class="st2" cx="469.3" cy="263.7" r="6.2"/>
	<circle class="st2" cx="434.5" cy="281.1" r="6.2"/>
	<circle class="st2" cx="451.9" cy="281.1" r="6.2"/>
	<circle class="st2" cx="469.3" cy="281.1" r="6.2"/>
	<circle class="st2" cx="486.7" cy="281.1" r="6.2"/>
	<circle class="st2" cx="434.5" cy="298.4" r="6.2"/>
	<circle class="st2" cx="451.9" cy="298.4" r="6.2"/>
	<circle class="st2" cx="469.3" cy="298.4" r="6.2"/>
	<circle class="st2" cx="486.7" cy="298.4" r="6.2"/>
	<circle class="st2" cx="504.1" cy="298.4" r="6.2"/>
	<circle class="st2" cx="434.5" cy="315.9" r="6.2"/>
	<circle class="st2" cx="451.9" cy="315.9" r="6.2"/>
	<circle class="st2" cx="469.3" cy="315.9" r="6.2"/>
	<circle class="st2" cx="486.7" cy="315.9" r="6.2"/>
	<circle class="st2" cx="504.1" cy="315.9" r="6.2"/>
	<circle class="st2" cx="399.7" cy="333.3" r="6.2"/>
	<circle class="st2" cx="417.1" cy="333.3" r="6.2"/>
	<circle class="st2" cx="434.5" cy="333.3" r="6.2"/>
	<circle class="st2" cx="451.9" cy="333.3" r="6.2"/>
	<circle class="st2" cx="469.3" cy="333.3" r="6.2"/>
	<circle class="st2" cx="486.7" cy="333.3" r="6.2"/>
	<circle class="st2" cx="504.1" cy="333.3" r="6.2"/>
	<circle class="st2" cx="521.5" cy="333.3" r="6.2"/>
	<circle class="st2" cx="382.3" cy="350.6" r="6.2"/>
	<circle class="st2" cx="399.7" cy="350.6" r="6.2"/>
	<circle class="st2" cx="417.1" cy="350.6" r="6.2"/>
	<circle class="st2" cx="434.5" cy="350.6" r="6.2"/>
	<circle class="st2" cx="451.9" cy="350.6" r="6.2"/>
	<circle class="st2" cx="469.3" cy="350.6" r="6.2"/>
	<circle class="st2" cx="486.7" cy="350.6" r="6.2"/>
	<circle class="st2" cx="504.1" cy="350.6" r="6.2"/>
	<circle class="st2" cx="538.9" cy="350.6" r="6.2"/>
	<circle class="st2" cx="556.3" cy="350.6" r="6.2"/>
	<circle class="st2" cx="399.7" cy="368" r="6.2"/>
	<circle class="st2" cx="417.1" cy="368" r="6.2"/>
	<circle class="st2" cx="434.5" cy="368" r="6.2"/>
	<circle class="st2" cx="451.9" cy="368" r="6.2"/>
	<circle class="st2" cx="469.3" cy="368" r="6.2"/>
	<circle class="st2" cx="486.7" cy="368" r="6.2"/>
	<circle class="st2" cx="504.1" cy="368" r="6.2"/>
	<circle class="st2" cx="521.5" cy="368" r="6.2"/>
	<circle class="st2" cx="538.9" cy="368" r="6.2"/>
	<circle class="st2" cx="556.3" cy="368" r="6.2"/>
	<circle class="st2" cx="382.3" cy="385.5" r="6.2"/>
	<circle class="st2" cx="399.7" cy="385.5" r="6.2"/>
	<circle class="st2" cx="417.1" cy="385.5" r="6.2"/>
	<circle class="st2" cx="434.5" cy="385.5" r="6.2"/>
	<circle class="st2" cx="451.9" cy="385.5" r="6.2"/>
	<circle class="st2" cx="469.3" cy="385.5" r="6.2"/>
	<circle class="st2" cx="486.7" cy="385.5" r="6.2"/>
	<circle class="st2" cx="504.1" cy="385.5" r="6.2"/>
	<circle class="st2" cx="521.5" cy="385.5" r="6.2"/>
	<circle class="st2" cx="538.9" cy="385.5" r="6.2"/>
	<circle class="st2" cx="556.3" cy="385.5" r="6.2"/>
	<circle class="st2" cx="399.7" cy="402.8" r="6.2"/>
	<circle class="st2" cx="417.1" cy="402.8" r="6.2"/>
	<circle class="st2" cx="434.5" cy="402.8" r="6.2"/>
	<circle class="st2" cx="451.9" cy="402.8" r="6.2"/>
	<circle class="st2" cx="469.3" cy="402.8" r="6.2"/>
	<circle class="st2" cx="486.7" cy="402.8" r="6.2"/>
	<circle class="st2" cx="504.1" cy="402.8" r="6.2"/>
	<circle class="st2" cx="521.5" cy="402.8" r="6.2"/>
	<circle class="st2" cx="538.9" cy="402.8" r="6.2"/>
	<circle class="st2" cx="434.5" cy="420.2" r="6.2"/>
	<circle class="st2" cx="451.9" cy="420.2" r="6.2"/>
	<circle class="st2" cx="469.3" cy="420.2" r="6.2"/>
	<circle class="st2" cx="486.7" cy="420.2" r="6.2"/>
	<circle class="st2" cx="504.1" cy="420.2" r="6.2"/>
	<circle class="st2" cx="521.5" cy="420.2" r="6.2"/>
	<circle class="st2" cx="538.9" cy="420.2" r="6.2"/>
	<circle class="st2" cx="399.7" cy="437.6" r="6.2"/>
	<circle class="st2" cx="417.1" cy="437.6" r="6.2"/>
	<circle class="st2" cx="434.5" cy="437.6" r="6.2"/>
	<circle class="st2" cx="451.9" cy="437.6" r="6.2"/>
	<circle class="st2" cx="469.3" cy="437.6" r="6.2"/>
	<circle class="st2" cx="486.7" cy="437.6" r="6.2"/>
	<circle class="st2" cx="504.1" cy="437.6" r="6.2"/>
	<circle class="st2" cx="521.5" cy="437.6" r="6.2"/>
	<circle class="st2" cx="538.9" cy="437.6" r="6.2"/>
	<circle class="st2" cx="382.3" cy="455" r="6.2"/>
	<circle class="st2" cx="399.7" cy="455" r="6.2"/>
	<circle class="st2" cx="364.9" cy="472.4" r="6.2"/>
	<circle class="st2" cx="312.7" cy="246.3" r="6.2"/>
	<circle class="st2" cx="330.1" cy="246.3" r="6.2"/>
	<circle class="st2" cx="295.3" cy="263.7" r="6.2"/>
	<circle class="st2" cx="312.7" cy="263.7" r="6.2"/>
	<circle class="st2" cx="330.1" cy="263.7" r="6.2"/>
	<circle class="st2" cx="295.3" cy="281.1" r="6.2"/>
	<circle class="st2" cx="330.1" cy="281.1" r="6.2"/>
	<circle class="st2" cx="347.5" cy="281.1" r="6.2"/>
</g>
</svg>
